<svg width="34" height="34" viewBox="0 0 34 34" fill="none" xmlns="http://www.w3.org/2000/svg">
<path d="M16.3874 0.547411C16.4697 -0.182469 17.5303 -0.182471 17.6126 0.547409L18.0874 4.75827C18.7451 10.6252 23.3748 15.2484 29.2417 15.9126L33.4526 16.3874C34.1825 16.4697 34.1825 17.5303 33.4526 17.6126L29.2417 18.0874C23.3748 18.7451 18.7516 23.3748 18.0874 29.2417L17.6126 33.4526C17.5303 34.1825 16.4697 34.1825 16.3874 33.4526L15.9126 29.2417C15.2549 23.3748 10.6252 18.7516 4.75827 18.0874L0.547411 17.6126C-0.182469 17.5303 -0.182471 16.4697 0.547409 16.3874L4.75827 15.9126C10.6252 15.2549 15.2484 10.6252 15.9126 4.75827L16.3874 0.547411Z" fill="white"/>
</svg>
